<svg width="48" height="48" viewBox="0 0 48 48" fill="none" xmlns="http://www.w3.org/2000/svg">
<path d="M24 0C14.6262 0 7 7.57013 7 16.875C7 20.0188 7.87729 23.0869 9.53763 25.7486L23.0323 47.3352C23.2908 47.7488 23.7462 48 24.236 48C24.2398 48 24.2435 48 24.2473 48C24.7413 47.9962 25.1977 47.7371 25.4514 47.3164L38.6021 25.5206C40.1709 22.9151 41 19.9255 41 16.875C41 7.57013 33.3738 0 24 0ZM36.1707 24.0767L24.2146 43.8924L11.9458 24.2668C10.5638 22.0513 9.81444 19.4953 9.81444 16.875C9.81444 9.12094 16.1885 2.79375 24 2.79375C31.8115 2.79375 38.1761 9.12094 38.1761 16.875C38.1761 19.4176 37.4762 21.9082 36.1707 24.0767Z" fill="#212126"/>
<path d="M24 9C19.5888 9 16 12.5888 16 17C16 21.383 19.5304 25 24 25C28.5247 25 32 21.3348 32 17C32 12.5888 28.4112 9 24 9ZM24 22.3511C21.0438 22.3511 18.6489 19.9482 18.6489 17C18.6489 14.0592 21.0592 11.6489 24 11.6489C26.9408 11.6489 29.3422 14.0592 29.3422 17C29.3422 19.9052 27.003 22.3511 24 22.3511Z" fill="#D2D2D4"/>
</svg>
