<svg width="48" height="49" viewBox="0 0 48 49" fill="none" xmlns="http://www.w3.org/2000/svg">
<path d="M44.085 3H3.9152C1.75641 3 0 4.91922 0 7.27821V32.9426C0 35.3017 1.75641 37.2209 3.9153 37.2209H6.20421V47.7803C6.20421 48.2737 6.47628 48.7184 6.89328 48.9072C7.03137 48.9697 7.17631 49 7.32012 49C7.61065 49 7.89622 48.876 8.10969 48.6428L18.5626 37.2208H44.0848C46.2437 37.2208 48 35.3016 48 32.9425V7.27821C48.0002 4.91922 46.2438 3 44.085 3ZM44.085 34.7814H18.0996C17.8109 34.7814 17.5486 34.9023 17.3505 35.0989L17.3449 35.1045C17.3313 35.1181 17.3174 35.1314 17.3044 35.1459L8.4366 44.8356V36.001C8.4366 35.9586 8.43463 35.921 8.43069 35.8878C8.37838 35.2674 7.90128 34.7814 7.31975 34.7814H3.9152C2.98726 34.7814 2.23238 33.9564 2.23238 32.9425V7.27821C2.23238 6.26426 2.98726 5.43941 3.9152 5.43941H44.0849C45.0129 5.43941 45.7677 6.26426 45.7677 7.27821V32.9426C45.7677 33.9564 45.0128 34.7814 44.085 34.7814Z" fill="#212126"/>
<path d="M10.0948 12C9.49015 12 9.00009 12.566 9.00009 13.2639C9.00009 13.9619 9.49015 14.5278 10.0948 14.5278H33.9118C34.5164 14.5278 35.0065 13.9618 35.0065 13.2639C35.0065 12.5659 34.5163 12 33.9118 12H10.0948Z" fill="#D2D2D4"/>
<path d="M10.0947 19.236H37.9053C38.5098 19.236 39 19.802 39 20.4999C39 21.198 38.5098 21.7638 37.9053 21.7638H10.0947C9.49006 21.7638 9 21.1979 9 20.4999C9 19.802 9.49006 19.236 10.0947 19.236Z" fill="#D2D2D4"/>
<path d="M10.0947 26.4722H24.4509C25.0555 26.4722 25.5456 27.038 25.5456 27.7361C25.5456 28.434 25.0555 29 24.4509 29H10.0947C9.49006 29 9 28.4341 9 27.7361C9 27.038 9.49006 26.4722 10.0947 26.4722Z" fill="#D2D2D4"/>
</svg>
