<svg width="48" height="48" viewBox="0 0 48 48" fill="none" xmlns="http://www.w3.org/2000/svg">
<path d="M9.512 0C4.26733 0 0 4.27067 0 9.51903C0 14.7674 4.26733 19.0377 9.512 19.0377C14.757 19.0377 19.024 14.7671 19.024 9.5187C19.024 4.27034 14.7567 0 9.512 0ZM9.512 15.0296C6.47534 15.0296 4.005 12.5572 4.005 9.5187C4.005 6.48023 6.47567 4.00782 9.512 4.00782C12.5487 4.00782 15.019 6.48023 15.019 9.5187C15.019 12.5572 12.5487 15.0296 9.512 15.0296Z" fill="#212126"/>
<path d="M38.488 28.9626C33.2433 28.9626 28.976 33.2329 28.976 38.4813C28.976 43.7297 33.2433 48 38.488 48C43.7327 48 48 43.73 48 38.4813C48 33.2326 43.7327 28.9626 38.488 28.9626ZM38.488 43.9918C35.4513 43.9918 32.981 41.5194 32.981 38.481C32.981 35.4425 35.4517 32.9701 38.488 32.9701C41.5243 32.9701 43.995 35.4425 43.995 38.481C43.995 41.5194 41.5247 43.9918 38.488 43.9918Z" fill="#212126"/>
<path d="M44.4222 3.57804C43.6525 2.80732 42.4035 2.80732 41.6338 3.57804L3.57779 41.6339C2.8074 42.4039 2.8074 43.6519 3.57779 44.422C3.96282 44.8073 4.46766 45 4.97217 45C5.47668 45 5.98152 44.8073 6.36623 44.422L44.4222 6.36613C45.1926 5.59607 45.1926 4.34809 44.4222 3.57804Z" fill="#D2D2D4"/>
</svg>
