<svg width="48" height="48" viewBox="0 0 48 48" fill="none" xmlns="http://www.w3.org/2000/svg">
<path fill-rule="evenodd" clip-rule="evenodd" d="M17 2.78215C17 1.27308 18.1963 0 19.7322 0H45.2678C46.8037 0 48 1.27308 48 2.78215V16.6929C48 18.202 46.8037 19.4751 45.2678 19.4751H39.7783L30.5443 29L30.5217 19.4751H28.7448C28.0654 19.4751 27.5146 18.9214 27.5146 18.2385C27.5146 17.5556 28.0654 17.002 28.7448 17.002H32.9762L32.9902 22.9335L38.7405 17.002H45.2678C45.3909 17.002 45.5397 16.8911 45.5397 16.6929V2.78215C45.5397 2.58395 45.3909 2.47302 45.2678 2.47302H19.7322C19.6091 2.47302 19.4603 2.58395 19.4603 2.78215V10.4605C19.4603 11.1434 18.9096 11.697 18.2302 11.697C17.5508 11.697 17 11.1434 17 10.4605V2.78215Z" fill="#D2D2D4"/>
<circle cx="27.5999" cy="10.2" r="1.2" fill="#212126"/>
<circle cx="33.2" cy="10.2" r="1.2" fill="#212126"/>
<circle cx="38.8001" cy="10.2" r="1.2" fill="#212126"/>
<path fill-rule="evenodd" clip-rule="evenodd" d="M18.4137 30.857L19.6838 30.1393C21.8865 28.8946 23.3275 26.596 23.3275 24.0001C23.3275 20.1338 20.1024 16.9001 16 16.9001C11.8976 16.9001 8.67253 20.1338 8.67253 24.0001C8.67253 26.596 10.1135 28.8946 12.3162 30.1393L13.5863 30.857V32.455C13.5863 35.6789 11.4502 38.4749 8.39356 39.4197L3.66943 41.0632L2.7155 45.5001H29.2845L28.3306 41.0632L23.6064 39.4197C20.5498 38.4749 18.4137 35.6789 18.4137 32.455V30.857ZM24.3824 37.0427L29.585 38.8526C30.2722 39.0592 30.7412 39.6795 30.7412 40.3819L31.9644 46.0713C32.1782 47.0656 31.4015 48.0001 30.3615 48.0001H1.63852C0.598484 48.0001 -0.17819 47.0656 0.0355753 46.0713L1.25879 40.3819C1.25879 39.6795 1.72776 39.0592 2.41501 38.8526L7.61759 37.0427C9.67935 36.423 11.0863 34.5622 11.0863 32.455V32.3158C8.14882 30.656 6.17252 27.5535 6.17252 24.0001C6.17252 18.6982 10.5724 14.4001 16 14.4001C21.4276 14.4001 25.8275 18.6982 25.8275 24.0001C25.8275 27.5535 23.8512 30.656 20.9137 32.3158V32.455C20.9137 34.5622 22.3207 36.423 24.3824 37.0427Z" fill="#212126"/>
</svg>
